<?xml version="1.0" encoding="UTF-8" standalone="no"?>
<!-- Generator: Adobe Illustrator 13.0.0, SVG Export Plug-In . SVG Version: 6.00 Build 14576)  -->

<svg
   version="1.1"
   x="0px"
   y="0px"
   width="576"
   height="324"
   viewBox="0 0 576 324"
   enable-background="new 0 0 800 600"
   xml:space="preserve"
   id="svg2"
   inkscape:version="1.2.2 (b0a84865, 2022-12-01)"
   sodipodi:docname="normal_graph.svg"
   xmlns:inkscape="http://www.inkscape.org/namespaces/inkscape"
   xmlns:sodipodi="http://sodipodi.sourceforge.net/DTD/sodipodi-0.dtd"
   xmlns="http://www.w3.org/2000/svg"
   xmlns:svg="http://www.w3.org/2000/svg"
   xmlns:rdf="http://www.w3.org/1999/02/22-rdf-syntax-ns#"
   xmlns:cc="http://creativecommons.org/ns#"
   xmlns:dc="http://purl.org/dc/elements/1.1/"><metadata
   id="metadata972"><rdf:RDF><cc:Work
       rdf:about=""><dc:format>image/svg+xml</dc:format><dc:type
         rdf:resource="http://purl.org/dc/dcmitype/StillImage" /></cc:Work></rdf:RDF></metadata><defs
   id="defs970">
</defs><sodipodi:namedview
   pagecolor="#ffffff"
   bordercolor="#666666"
   borderopacity="1"
   objecttolerance="10"
   gridtolerance="10"
   guidetolerance="10"
   inkscape:pageopacity="0"
   inkscape:pageshadow="2"
   inkscape:window-width="1280"
   inkscape:window-height="771"
   id="namedview968"
   showgrid="false"
   inkscape:zoom="1.0740622"
   inkscape:cx="275.12373"
   inkscape:cy="118.70821"
   inkscape:window-x="0"
   inkscape:window-y="33"
   inkscape:window-maximized="0"
   inkscape:current-layer="svg2"
   inkscape:showpageshadow="0"
   inkscape:pagecheckerboard="0"
   inkscape:deskcolor="#d1d1d1"
   showguides="false" /><path
   fill="none"
   stroke="#000000"
   d="m 576,310 c -27.98,0 -51.61,-6.96 -71.97,-18.72 -29.641,-17.101 -52.36,-44.37 -71.48,-75.12 -28,-45.01 -48.31,-97.48 -71.39,-136.52 C 341.13,45.76 319.02,22 288,22 c -31.1,0 -53.24,23.88 -73.31,57.89 -23.04,39.05 -43.34,91.45 -71.31,136.39 -19.28,30.979 -42.21,58.41 -72.2,75.45 C 51,303.22 27.62,310 0,310"
   id="path11"
   style="stroke-width:3;stroke-dasharray:none" /><polyline
   fill="none"
   stroke="#000000"
   stroke-width="1.5"
   points="432,412.5 432,403.5 432,106.5 432,88.5    "
   id="polyline17"
   style="stroke-width:3;stroke-dasharray:none"
   transform="translate(-144,-88.5)" /><polyline
   fill="none"
   stroke="#000000"
   stroke-width="1.5"
   points="720,403.5 648,403.5 576,403.5 504,403.5 432,403.5        360.17,403.5 288,403.5 216.16,403.5 144,403.5      "
   id="polyline23"
   style="stroke-width:3;stroke-dasharray:none"
   transform="translate(-144,-88.5)" /><g
   id="g588"
   style="stroke-width:4;stroke-dasharray:none"
   transform="translate(-144,-88.5)" /><g
   id="g668"
   style="stroke-width:4;stroke-dasharray:none"
   transform="translate(-144,-88.5)" /><g
   id="g710"
   style="stroke-width:4;stroke-dasharray:none"
   transform="translate(-144,-88.5)" />








</svg>
